<svg width="642" height="137" viewBox="0 0 642 137" fill="none" xmlns="http://www.w3.org/2000/svg">
<g clip-path="url(#clip0_104_974)">
<path d="M8.19666 0H129.081L68.6386 60.442L8.19666 0Z" fill="#FFAC00"/>
<path d="M137.154 8.05786V72.5365L104.922 104.753L72.6907 72.5365L137.154 8.05786Z" fill="#AB1A8A"/>
<path d="M0.138664 128.926L0 7.91907L60.5806 68.4997L0.138664 128.926Z" fill="#1E83DA"/>
<path d="M71.6891 136.984L136.152 72.5212V136.984H71.6891Z" fill="#AB1A8A"/>
<path d="M8.19666 137C72.6599 72.5368 40.4283 104.753 40.4283 104.753L72.6599 137H8.19666Z" fill="#AB1A8A"/>
<path d="M8.19666 136.985L72.6599 72.5213L96.8336 96.7104L137.139 56.4055V136.985H127.062V82.5975L96.8336 112.811L72.6599 88.6371L24.3279 136.985H8.19666Z" fill="#FFAC00"/>
</g>
<path fill-rule="evenodd" clip-rule="evenodd" d="M193.123 29.7906H179.335V12.4419H181.848V27.7485H191.203V12.4419H193.716V27.7485H195.462V33.7001H193.071L193.123 29.7906ZM211.711 29.7907H199.197V12.442H211.711V14.5015H201.728V19.2488H211.711V21.2908H201.728V27.7312H211.711V29.7907ZM227.698 29.7907H230.229V12.442H227.698V19.2488H218.238V12.442H215.708V29.7907H218.238V21.2908H227.698V29.7907ZM248.869 14.5015H242.08V29.7907H239.636V14.5015H232.847V12.442H248.939L248.869 14.5015ZM263.827 17.7257C263.832 18.4482 263.683 19.1636 263.391 19.8247C263.103 20.4819 262.688 21.0753 262.169 21.5701C261.496 22.1735 260.706 22.6311 259.847 22.914C258.749 23.236 257.606 23.3832 256.462 23.3503H253.948V29.8255H251.417V12.4768H256.566C257.539 12.4618 258.51 12.5496 259.463 12.7386C260.201 12.8971 260.909 13.1741 261.558 13.5589C262.289 13.9723 262.889 14.5824 263.29 15.3198C263.69 16.0558 263.876 16.8893 263.827 17.7257ZM260.86 16.1246C261.097 16.6139 261.216 17.1518 261.209 17.6954V17.7478C261.213 18.2185 261.131 18.6861 260.965 19.1266C260.75 19.624 260.419 20.0627 260 20.4059C259.581 20.7491 259.086 20.9867 258.556 21.0988C257.744 21.2923 256.912 21.3802 256.078 21.3606H253.948V14.3793H256.444C257.105 14.3685 257.765 14.4211 258.416 14.5363C258.905 14.6305 259.377 14.8013 259.813 15.0425C260.257 15.2968 260.62 15.6721 260.86 16.1246Z" fill="#1E83DA"/>
<path fill-rule="evenodd" clip-rule="evenodd" d="M350.642 21.815C351.056 22.1586 351.4 22.5794 351.654 23.0542C351.94 23.6589 352.078 24.323 352.055 24.9916C352.066 25.7687 351.867 26.5344 351.48 27.2081C351.108 27.8792 350.61 28.4719 350.013 28.9535C349.266 29.5063 348.418 29.9093 347.518 30.1403C346.487 30.4113 345.425 30.5463 344.359 30.5417C343.187 30.5544 342.016 30.4432 340.868 30.2101C340.003 30.0516 339.152 29.8299 338.32 29.5469V26.9638H338.512C339.413 27.4462 340.368 27.8211 341.357 28.0808C342.344 28.3637 343.366 28.5105 344.393 28.5171C345.064 28.5158 345.732 28.4338 346.383 28.2728C347.008 28.1562 347.602 27.9127 348.128 27.5572C348.544 27.2431 348.889 26.8446 349.141 26.3878C349.339 25.9309 349.441 25.4375 349.437 24.9392C349.461 24.4064 349.327 23.8783 349.053 23.4207C348.825 22.9871 348.489 22.6203 348.076 22.3561C347.582 22.1072 347.052 21.9365 346.505 21.8499C345.824 21.7402 345.135 21.6876 344.446 21.6928H341.88V19.7206H344.167C345.373 19.7652 346.571 19.5135 347.657 18.9876C348.062 18.7995 348.405 18.4987 348.643 18.121C348.881 17.7433 349.006 17.3048 349.001 16.8583C349.009 16.4579 348.886 16.066 348.652 15.7412C348.423 15.4068 348.101 15.1461 347.727 14.9907C347.327 14.7873 346.897 14.6516 346.453 14.5893C345.876 14.4944 345.292 14.4536 344.708 14.4671C344.092 14.4596 343.478 14.5181 342.875 14.6416C342.338 14.7424 341.807 14.8765 341.287 15.0431C340.856 15.1815 340.436 15.3507 340.03 15.5492L339.105 16.003H338.931V13.4548C339.759 13.152 340.611 12.9185 341.479 12.7567C342.525 12.5476 343.589 12.4424 344.655 12.4425C345.556 12.4349 346.456 12.5109 347.343 12.6694C348.076 12.8108 348.782 13.0639 349.437 13.4199C350.044 13.7391 350.565 14.2001 350.956 14.7638C351.309 15.309 351.491 15.9471 351.48 16.5965C351.489 17.0652 351.401 17.5309 351.221 17.9636C351.041 18.3964 350.772 18.7868 350.432 19.1098C349.709 19.8128 348.791 20.2812 347.797 20.4537V20.6282C348.284 20.7072 348.763 20.8298 349.228 20.9947C349.739 21.1924 350.216 21.4693 350.642 21.815ZM334.288 30.1751H336.976L330.064 12.8264H326.696L319.802 30.1751H322.297L324.165 25.3405H332.368L334.288 30.1751ZM328.319 14.851L331.652 23.3508H324.985L328.319 14.851ZM318.248 20.2091C318.545 19.5388 318.693 18.8126 318.685 18.0798C318.736 17.2216 318.555 16.3655 318.161 15.6014C317.72 14.9169 317.122 14.3482 316.416 13.9433C315.766 13.5585 315.059 13.2815 314.321 13.123C313.367 12.934 312.396 12.8462 311.424 12.8612H306.275V30.2099H308.788V23.7347H311.319C312.458 23.7678 313.595 23.6206 314.688 23.2984C315.55 23.0238 316.342 22.5652 317.009 21.9545C317.538 21.4642 317.96 20.87 318.248 20.2091ZM315.717 16.509C315.955 16.9983 316.074 17.5362 316.067 18.0798V18.1322C316.074 18.6047 315.984 19.0738 315.805 19.511C315.619 19.9651 315.333 20.371 314.967 20.6978C314.524 21.0866 313.989 21.3568 313.414 21.4832C312.596 21.6776 311.758 21.7656 310.918 21.745H308.788V14.7637H311.284C311.951 14.7526 312.617 14.8051 313.274 14.9207C313.763 15.0149 314.234 15.1857 314.67 15.4269C315.115 15.6812 315.478 16.0565 315.717 16.509ZM369.718 27.1208C370.077 26.413 370.257 25.6279 370.242 24.8344C370.28 23.734 369.885 22.6624 369.142 21.8498C368.323 21.0225 367.257 20.4835 366.105 20.3139V20.2092C366.819 19.9045 367.448 19.4314 367.938 18.8304C368.403 18.2258 368.649 17.4812 368.636 16.7185C368.65 16.0572 368.481 15.405 368.147 14.8336C367.787 14.2675 367.264 13.8234 366.647 13.5595C366.016 13.265 365.346 13.0651 364.657 12.9661C363.625 12.8587 362.588 12.8121 361.55 12.8265H355.93V30.1752H362.667C363.758 30.1929 364.848 30.0815 365.913 29.8435C366.761 29.6278 367.56 29.2548 368.27 28.744C368.874 28.3253 369.371 27.769 369.718 27.1208ZM365.774 15.9681C365.938 16.2918 366.016 16.6525 366.001 17.0153C366.044 17.4865 365.99 17.9616 365.844 18.4115C365.66 18.7914 365.361 19.1031 364.988 19.3017C364.591 19.538 364.153 19.6979 363.697 19.7729C363.072 19.8519 362.442 19.8869 361.812 19.8776H358.548V14.8685H361.463H363.575C364.085 14.9055 364.583 15.0419 365.041 15.2699C365.349 15.4251 365.604 15.668 365.774 15.9681ZM367.275 23.1763C367.54 23.7182 367.66 24.3195 367.624 24.9217C367.66 25.4042 367.582 25.8884 367.397 26.3354C367.141 26.7664 366.781 27.1265 366.35 27.3826C365.813 27.6907 365.219 27.8867 364.604 27.9585C363.702 28.0747 362.792 28.1272 361.882 28.1156H358.548V21.6579H362.423C362.881 21.6579 363.297 21.684 363.674 21.7076C363.987 21.7272 364.274 21.7451 364.535 21.7451C365.052 21.7937 365.559 21.9232 366.036 22.1291C366.55 22.3371 366.984 22.704 367.275 23.1763ZM388.324 30.1751H385.81V16.2124L376.368 30.1751H373.82V12.8264H376.333V26.5099L385.653 12.8264H388.324V30.1751ZM400.175 14.8859H406.964V12.8264H390.872V14.8859H397.661V30.1751H400.175V14.8859ZM423.998 30.476H421.485V16.5132L412.06 30.476H409.512V13.1273H412.025V26.8108L421.328 13.1273H423.998V30.476ZM439.916 30.1749H442.429V12.8262H436.181C435.285 12.8218 434.391 12.9036 433.511 13.0705C432.762 13.2017 432.045 13.4742 431.399 13.8734C430.753 14.2848 430.204 14.8329 429.793 15.4791C429.376 16.1675 429.164 16.9607 429.182 17.7655C429.118 18.9694 429.497 20.1551 430.247 21.0991C431.035 21.9787 432.059 22.6145 433.196 22.9317L427.105 30.1749H430.142L435.815 23.1936H439.916V30.1749ZM439.916 14.8159V21.3609H436.181C435.537 21.3637 434.894 21.3053 434.261 21.1864C433.736 21.0838 433.248 20.8428 432.847 20.4882C432.516 20.1916 432.258 19.8209 432.097 19.4061C431.924 18.9069 431.842 18.381 431.853 17.8528C431.853 17.3567 431.966 16.8673 432.184 16.4216C432.391 16.0039 432.712 15.653 433.109 15.4093C433.479 15.1811 433.887 15.0214 434.314 14.9381C434.89 14.8447 435.475 14.8038 436.059 14.8159H439.916Z" fill="#1E83DA"/>
<path d="M484.87 12.442H486.948V25.0994H487.118L496.658 12.442H498.702V28.5228H496.59V15.8969H496.42L486.914 28.5228H484.87V12.442Z" fill="#1E83DA"/>
<path d="M502.929 28.5228V12.442H505.042V19.603H514.343V12.442H516.455V28.5228H514.343V21.3304H505.042V28.5228H502.929Z" fill="#1E83DA"/>
<path d="M519.73 14.1694V12.442H532.813V14.1694H527.328V28.5228H525.216V14.1694H519.73Z" fill="#1E83DA"/>
<path d="M536.073 28.5228V12.442H546.601V14.1694H538.186V19.603H546.056V21.3304H538.186V26.7954H546.737V28.5228H536.073Z" fill="#1E83DA"/>
<path d="M548.909 28.5228V26.7326H549.421C550.147 26.7326 550.712 26.5179 551.116 26.0887C551.519 25.6595 551.808 24.9659 551.984 24.0079C552.166 23.05 552.288 21.7806 552.351 20.1997L552.657 12.442H563.287V28.5228H561.175V14.1694H554.667L554.395 20.5766C554.327 22.2622 554.159 23.6965 553.892 24.8795C553.625 26.0625 553.157 26.9655 552.487 27.5884C551.817 28.2113 550.84 28.5228 549.557 28.5228H548.909Z" fill="#1E83DA"/>
<path d="M566.009 28.5228V26.7326H566.52C567.247 26.7326 567.812 26.5179 568.215 26.0887C568.618 25.6595 568.907 24.9659 569.083 24.0079C569.265 23.05 569.387 21.7806 569.45 20.1997L569.756 12.442H580.386V28.5228H578.274V14.1694H571.767L571.494 20.5766C571.426 22.2622 571.258 23.6965 570.991 24.8795C570.725 26.0625 570.256 26.9655 569.586 27.5884C568.916 28.2113 567.939 28.5228 566.656 28.5228H566.009Z" fill="#1E83DA"/>
<path d="M584.607 28.5228V12.442H595.135V14.1694H586.719V19.603H594.59V21.3304H586.719V26.7954H595.271V28.5228H584.607Z" fill="#1E83DA"/>
<path d="M609.197 28.5228L603.201 21.142H601.054V28.5228H598.942V12.442H601.054V19.4145H601.974L608.959 12.442H611.48L604.427 19.5088L611.719 28.5228H609.197Z" fill="#1E83DA"/>
<path d="M613.494 14.1694V12.442H626.578V14.1694H621.092V28.5228H618.98V14.1694H613.494Z" fill="#1E83DA"/>
<path d="M628.515 28.5228H626.301L632.706 12.442H634.886L641.292 28.5228H639.077L633.864 14.986H633.728L628.515 28.5228ZM629.333 22.2412H638.259V23.9687H629.333V22.2412Z" fill="#1E83DA"/>
<path fill-rule="evenodd" clip-rule="evenodd" d="M358.403 60.6842V124.558H365.226V107.166C368.509 107.086 371.751 106.326 374.742 104.921C378.631 103.094 381.95 100.246 384.346 96.6809L384.353 96.6716L384.359 96.6622C386.706 93.119 387.984 88.9756 388.041 84.726C388.098 80.4765 386.932 76.3002 384.681 72.6952L384.674 72.6845C382.387 69.0519 379.159 66.1069 375.332 64.162C372.187 62.5634 368.734 61.6896 365.226 61.592V60.6842H358.403ZM365.226 68.2306V100.528C367.536 100.45 369.815 99.9048 371.921 98.9152C374.719 97.6009 377.108 95.5528 378.833 92.9888C380.474 90.5089 381.367 87.6099 381.407 84.6368C381.447 81.6621 380.631 78.7386 379.056 76.2145C377.408 73.5987 375.082 71.4779 372.326 70.0769C370.114 68.9528 367.691 68.3259 365.226 68.2306Z" fill="#1E83DA"/>
<path d="M574.286 61.0327L555.107 80.4235L535.925 61.0327H524.203L549.25 86.3442L523.697 112.179V123.67L586.02 61.0327H574.286Z" fill="#1E83DA"/>
<path fill-rule="evenodd" clip-rule="evenodd" d="M513.88 61.5969L511.639 63.8376L511.617 63.8225L505.844 69.6334L505.779 69.6979L451.621 124.209L511.972 124.209V124.182H513.88V61.5969ZM505.644 115.847L505.745 81.3893L471.644 115.847H505.644Z" fill="#1E83DA"/>
<path d="M600.106 61.5775L599.638 61.1039L549.469 111.853V123.648L600.106 72.4857V73.4062L620.667 94.1873L622.191 92.6436L632.828 81.8842L632.94 124.172H641.258V69.5126L641.292 61.4858L620.701 82.3685L600.106 61.5603V61.5775Z" fill="#1E83DA"/>
<path d="M243.782 61.0498V124.192H252.076V93.0023L282.42 123.665V111.819L257.042 86.1832L281.909 61.0738L270.211 61.0486L252.076 79.3697V61.0498H243.782Z" fill="#1E83DA"/>
<path fill-rule="evenodd" clip-rule="evenodd" d="M404.222 71.8938C409.371 65.9438 416.546 62.1454 424.328 61.2155L424.324 61.1599L425.594 61.09L426.96 60.9835L426.964 61.0414C434.801 60.9332 442.415 63.7485 448.306 68.9644C454.521 74.4679 458.316 82.2002 458.866 90.4836C459.417 98.767 456.679 106.933 451.247 113.211C445.815 119.489 438.127 123.372 429.85 124.017L429.799 124.021H429.766C421.49 124.467 413.37 121.636 407.164 116.141C400.948 110.637 397.154 102.905 396.603 94.6215C396.053 86.3381 398.79 78.1716 404.222 71.8938ZM417.451 71.7701C420.112 70.4558 423.001 69.6655 425.959 69.4418L426.204 69.4257C430.777 69.1252 435.336 70.1873 439.305 72.4776C443.275 74.7678 446.476 78.1835 448.505 82.2929C450.533 86.4023 451.298 91.0208 450.702 95.5646C450.106 100.108 448.176 104.374 445.157 107.821C442.137 111.268 438.163 113.743 433.738 114.932C429.312 116.122 424.633 115.972 420.292 114.503C415.951 113.033 412.144 110.31 409.35 106.677C406.557 103.043 404.904 98.6637 404.599 94.091C404.395 91.0536 404.791 88.0046 405.766 85.1205C406.74 82.2364 408.274 79.5727 410.279 77.2819C412.284 74.9911 414.721 73.1182 417.451 71.7701Z" fill="#1E83DA"/>
<path d="M229.263 113.819C231.031 111.872 232.554 109.7 233.788 107.35L234.812 105.402H225.346L224.947 105.922C224.063 107.073 223.113 108.171 222.102 109.212C220.389 110.851 218.439 112.222 216.318 113.28C213.075 114.877 209.5 115.684 205.886 115.635C202.27 115.586 198.718 114.681 195.52 112.995C192.321 111.308 189.567 108.889 187.483 105.934C185.399 102.979 184.045 99.5728 183.531 95.9937L183.529 95.9863C182.812 91.1882 183.624 86.2861 185.851 81.9757C187.322 79.1261 189.363 76.6308 191.828 74.6334C192.022 74.4782 192.219 74.326 192.419 74.1768C195.813 71.6425 199.839 70.0922 204.057 69.696C208.272 69.3 212.515 70.0725 216.32 71.9286C218.445 72.9869 220.394 74.3639 222.102 76.0119C223.116 77.0478 224.065 78.1455 224.943 79.2989L225.343 79.8229H234.809L233.789 77.8761C232.562 75.5348 231.049 73.3703 229.292 71.4284L229.345 71.3748L228.421 70.4366C223.8 65.7457 217.809 62.643 211.312 61.5756C204.814 60.5082 198.146 61.5313 192.267 64.4973L192.258 64.502C186.409 67.5101 181.648 72.2735 178.643 78.124C176.329 82.6302 175.145 87.6073 175.163 92.6295C175.145 97.6518 176.329 102.629 178.643 107.135C181.648 112.986 186.409 117.749 192.258 120.757L192.267 120.762C198.144 123.727 204.811 124.751 211.308 123.687C217.804 122.623 223.796 119.526 228.42 114.84L229.346 113.902L229.263 113.819Z" fill="#1E83DA"/>
<path d="M294.003 90.4985C294.003 90.4983 294.003 90.4987 294.003 90.4985L308.562 70.8624C308.562 70.8624 308.562 70.8625 308.562 70.8624L294.003 90.4985Z" fill="#1E83DA"/>
<path fill-rule="evenodd" clip-rule="evenodd" d="M293.549 71.7462C298.708 65.7915 305.897 61.9954 313.691 61.0765L313.688 61.0229L314.952 60.9534L316.32 60.8488L316.324 60.9047C324.16 60.7965 331.775 63.6118 337.665 68.8278C343.881 74.3313 347.675 82.0635 348.226 90.3469C348.776 98.6303 346.039 106.797 340.607 113.075C335.175 119.352 327.486 123.235 319.21 123.88L319.196 123.881L319.182 123.882C310.884 124.356 302.735 121.535 296.506 116.032C290.277 110.529 286.472 102.79 285.918 94.4973C285.364 86.2043 288.107 78.028 293.549 71.7462ZM308.562 70.8624C307.972 71.096 307.391 71.354 306.82 71.6362C304.094 72.9841 301.659 74.856 299.656 77.1449C297.653 79.4337 296.12 82.0948 295.146 84.976C294.54 86.7675 294.157 88.6222 294.003 90.4985L292.595 92.3968C292.595 92.3967 292.595 92.397 292.595 92.3968L294.003 90.4985C293.909 91.6397 293.9 92.7893 293.976 93.937C294.278 98.5119 295.93 102.895 298.723 106.531C301.516 110.167 305.325 112.892 309.668 114.363C314.01 115.833 318.691 115.983 323.119 114.792C327.546 113.602 331.521 111.125 334.541 107.675C337.56 104.225 339.488 99.9565 340.082 95.4102C340.675 90.8639 339.906 86.2439 337.873 82.1346C335.84 78.0253 332.633 74.6114 328.659 72.3248C324.695 70.0437 320.144 68.9869 315.581 69.2868L315.514 69.2913C313.126 69.4534 310.781 69.9846 308.562 70.8624Z" fill="#1E83DA"/>
<defs>
<clipPath id="clip0_104_974">
<rect width="137.154" height="137" fill="white"/>
</clipPath>
</defs>
</svg>
